<svg xmlns="http://www.w3.org/2000/svg" viewBox="0 0 291.15 106.8">
  <defs>
    <style>
      .cls-1{fill:#0080d7}
    </style>
  </defs>
  <g id="Layer_2" data-name="Layer 2">
    <g id="Artwork">
      <path class="cls-1" d="M40.89 106.8a4.29 4.29 0 01-4.29-4.29V4.29a4.29 4.29 0 118.57 0v98.22a4.29 4.29 0 01-4.28 4.29M14.42 91.42a79.68 79.68 0 009.71-38.13 79.83 79.83 0 00-9.59-37.93 4.28 4.28 0 017.53-4.09 88.21 88.21 0 0110.21 33.79 8.11 8.11 0 01-1.64 5.76 8.2 8.2 0 01-3.45 2.58 8.05 8.05 0 011.78 1 8.15 8.15 0 013.28 7.41 88.11 88.11 0 01-10.31 33.72 4.28 4.28 0 01-3.77 2.23 4.18 4.18 0 01-2-.52 4.27 4.27 0 01-1.71-5.82"/>
      <path class="cls-1" d="M1.45 77.09A31.54 31.54 0 0012.17 53.4 31.57 31.57 0 001.45 29.7a4.29 4.29 0 015.67-6.43A40.24 40.24 0 0119.61 44 8.07 8.07 0 0115 53.3l-.25.1a8 8 0 014.82 9.41A40.16 40.16 0 017.12 83.53a4.33 4.33 0 01-2.84 1.07 4.29 4.29 0 01-2.83-7.51M67.36 91.42a79.76 79.76 0 01-.12-76.06 4.28 4.28 0 00-7.53-4.09A88.21 88.21 0 0049.5 45.06a8.15 8.15 0 001.63 5.76 8.26 8.26 0 003.45 2.58 8.53 8.53 0 00-1.78 1 8.17 8.17 0 00-3.28 7.41 88.11 88.11 0 0010.31 33.72 4.29 4.29 0 003.78 2.23 4.21 4.21 0 002-.52 4.29 4.29 0 001.71-5.82"/>
      <path class="cls-1" d="M80.32 77.09a31.57 31.57 0 010-47.39 4.28 4.28 0 10-5.66-6.43A40.18 40.18 0 0062.17 44a8.06 8.06 0 004.56 9.32l.25.1a8.6 8.6 0 00-1 .46 8.06 8.06 0 00-3.84 9 40.16 40.16 0 0012.52 20.65 4.29 4.29 0 105.66-6.44M104.79 18.94a1.64 1.64 0 011.7-1.23H109a1.64 1.64 0 011.7 1.23l5.67 16.64a1.33 1.33 0 01-.06 1.26 1.36 1.36 0 01-1.17.46h-1.81a1.65 1.65 0 01-1.7-1.26l-.82-2.85h-6.11l-.87 2.81a1.59 1.59 0 01-1.67 1.26h-1.81a1.36 1.36 0 01-1.17-.46 1.32 1.32 0 01-.07-1.26zm4.85 10.41l-1.1-3.81c-.09-.31-.18-.65-.26-1s-.17-.75-.26-1.09-.18-.82-.27-1.24h-.06c-.09.42-.18.84-.27 1.24s-.18.71-.26 1.09-.17.73-.26 1l-1.13 3.81zM118 19.21a1.33 1.33 0 011.51-1.5h1.78a1.33 1.33 0 011.51 1.5v10.88a3 3 0 00.91 2.36 4.24 4.24 0 005 0 2.92 2.92 0 00.92-2.36V19.21a1.33 1.33 0 011.51-1.5h1.78a1.33 1.33 0 011.51 1.5v10.88a7.69 7.69 0 01-.59 3 6.94 6.94 0 01-1.66 2.39 7.74 7.74 0 01-2.58 1.56 9.59 9.59 0 01-3.34.56 9.78 9.78 0 01-3.38-.56 7.69 7.69 0 01-2.59-1.56 6.81 6.81 0 01-1.66-2.39 7.69 7.69 0 01-.59-3zM137.59 35.68a1.9 1.9 0 01-.38-.37 1.26 1.26 0 01-.24-.46 1.32 1.32 0 010-.56 2 2 0 01.35-.69l.85-1.23a1.34 1.34 0 01.9-.67 2 2 0 011.18.31l.59.33c.23.13.49.26.79.4a5.87 5.87 0 001 .34 5 5 0 001.18.14 2.52 2.52 0 001.58-.4 1.19 1.19 0 00.51-1 1.43 1.43 0 00-.65-1.17 8.14 8.14 0 00-1.6-.9l-2.08-.91a10 10 0 01-2.09-1.19 6.19 6.19 0 01-1.6-1.74 4.72 4.72 0 01-.64-2.56 5.5 5.5 0 01.53-2.45 5.73 5.73 0 011.47-1.9 6.62 6.62 0 012.22-1.22 8.82 8.82 0 012.76-.42 9.88 9.88 0 013.16.48 8.65 8.65 0 012.13 1 1.51 1.51 0 01.69 1 1.89 1.89 0 01-.22 1.11l-.66 1.28c-.27.53-.59.8-.94.81a2.15 2.15 0 01-1.11-.29c-.46-.21-.93-.42-1.42-.61a4.54 4.54 0 00-1.68-.29 2.58 2.58 0 00-1.64.4 1.2 1.2 0 00-.5 1 1.4 1.4 0 00.65 1.18 8.38 8.38 0 001.6.88c.64.27 1.33.56 2.08.86a9.36 9.36 0 012.08 1.15 6.19 6.19 0 011.61 1.68 4.72 4.72 0 01.64 2.56 6.17 6.17 0 01-.45 2.34 5.51 5.51 0 01-1.33 2 6.41 6.41 0 01-2.16 1.33 8.17 8.17 0 01-2.94.49 9.78 9.78 0 01-2-.19 13.6 13.6 0 01-1.76-.48 10.35 10.35 0 01-1.45-.63 6.65 6.65 0 01-1.01-.74zM157.71 21.82h-4.44a1.34 1.34 0 01-1.51-1.51v-1.1a1.33 1.33 0 011.51-1.5h13.67a1.33 1.33 0 011.51 1.5v1.1a1.34 1.34 0 01-1.51 1.51h-4.44v14a1.33 1.33 0 01-1.5 1.48h-1.79a1.33 1.33 0 01-1.5-1.51zM170.51 19.21a1.33 1.33 0 011.5-1.5h5.32a17.75 17.75 0 012.34.11 6.35 6.35 0 011.47.35 5.33 5.33 0 012.64 2.1 6.37 6.37 0 011 3.6 7 7 0 01-.18 1.58A6.53 6.53 0 01184 27a5.73 5.73 0 01-.92 1.31 4.24 4.24 0 01-1.29.95v.05c.06.07.12.17.2.28a2.2 2.2 0 01.23.37c.08.15.19.33.31.53l2.8 5a1.23 1.23 0 01.15 1.3 1.29 1.29 0 01-1.19.51h-2.08a1.94 1.94 0 01-1.79-1.07l-2.9-5.53h-2.22v5.09a1.33 1.33 0 01-1.51 1.51H172a1.33 1.33 0 01-1.5-1.51zm6.87 7.38a2.62 2.62 0 001.83-.62 2.35 2.35 0 00.67-1.8 3.27 3.27 0 00-.23-1.27 1.59 1.59 0 00-.92-.81 4.79 4.79 0 00-1.81-.27h-1.62v4.77zM192.18 18.94a1.65 1.65 0 011.7-1.23h2.47a1.65 1.65 0 011.7 1.23l5.67 16.64a1.32 1.32 0 01-.07 1.26 1.34 1.34 0 01-1.16.46h-1.81A1.65 1.65 0 01199 36l-.82-2.85h-6.11l-.85 2.85a1.57 1.57 0 01-1.67 1.26h-1.81a1.35 1.35 0 01-1.16-.46 1.32 1.32 0 01-.07-1.26zM197 29.35l-1.09-3.81c-.09-.31-.18-.65-.26-1s-.17-.75-.26-1.09-.19-.82-.28-1.24c-.09.42-.18.84-.28 1.24s-.17.71-.26 1.09a9.85 9.85 0 01-.26 1l-1.12 3.81zM206 19.21a1.33 1.33 0 011.51-1.5h1.78a1.33 1.33 0 011.51 1.5v14h6.49a1.33 1.33 0 011.51 1.51v1.09a1.33 1.33 0 01-1.51 1.51h-9.78a1.33 1.33 0 01-1.51-1.53zM220.74 19.21a1.33 1.33 0 011.51-1.5H224a1.33 1.33 0 011.51 1.5v16.58A1.34 1.34 0 01224 37.3h-1.78a1.33 1.33 0 01-1.51-1.51zM233.46 18.94a1.64 1.64 0 011.7-1.23h2.46a1.64 1.64 0 011.7 1.23L245 35.58a1.17 1.17 0 01-1.24 1.72H242a1.65 1.65 0 01-1.7-1.26l-.82-2.85h-6.11L232.5 36a1.59 1.59 0 01-1.67 1.26H229a1.36 1.36 0 01-1.17-.46 1.32 1.32 0 01-.07-1.26zm4.85 10.41l-1.1-3.81c-.09-.31-.18-.65-.26-1s-.17-.75-.26-1.09-.18-.82-.27-1.24h-.06c-.09.42-.18.84-.27 1.24s-.18.71-.26 1.09-.17.73-.26 1l-1.13 3.81zM247.24 19.21a1.33 1.33 0 011.51-1.5h2.14a1.93 1.93 0 011.81 1l4.82 8.14a10.68 10.68 0 01.57 1.07c.19.38.36.75.53 1.09s.36.8.54 1.18h.06c0-.4-.07-.8-.11-1.2s-.07-.72-.08-1.1 0-.73 0-1v-7.68a1.33 1.33 0 011.51-1.5h1.78a1.33 1.33 0 011.51 1.5v16.58a1.34 1.34 0 01-1.51 1.51h-2.14a1.92 1.92 0 01-1.78-1l-4.85-8.11c-.2-.32-.4-.67-.6-1.06s-.38-.76-.53-1.11-.37-.79-.52-1.18h-.05c0 .4.07.81.11 1.21s.06.71.08 1.09 0 .73 0 1.05v7.61a1.33 1.33 0 01-1.51 1.51h-1.78a1.33 1.33 0 01-1.51-1.51zM99.63 53.5a10.45 10.45 0 01.76-4 9.6 9.6 0 012.11-3.19 10 10 0 013.25-2.14 10.81 10.81 0 014.16-.78 11.19 11.19 0 012.08.18 12.88 12.88 0 011.76.45 10.3 10.3 0 011.4.61c.4.22.74.43 1 .63a1.37 1.37 0 01.64.94 1.71 1.71 0 01-.31 1.14l-.69 1.12a1.36 1.36 0 01-.9.72 1.72 1.72 0 01-1.15-.31 14 14 0 00-1.62-.74 5.81 5.81 0 00-2-.35 6 6 0 00-2.52.48 4.82 4.82 0 00-1.71 1.26 5 5 0 00-1 1.78 6.89 6.89 0 00-.32 2.07 7.15 7.15 0 00.33 2.15 5.59 5.59 0 001 1.89 4.88 4.88 0 001.72 1.34 6.07 6.07 0 004.73.06 9.92 9.92 0 001.74-.95 1.33 1.33 0 012.11.28l.77 1.07a1.71 1.71 0 01.34 1.12 1.4 1.4 0 01-.59 1c-.31.23-.68.49-1.12.76a9.36 9.36 0 01-1.52.76 12.07 12.07 0 01-1.92.57 10.32 10.32 0 01-2.29.24 11.34 11.34 0 01-4.26-.77 9.21 9.21 0 01-5.3-5.36 11 11 0 01-.68-4.03zM118.38 53.42a10.46 10.46 0 01.74-3.94 9.48 9.48 0 012.1-3.18 9.64 9.64 0 013.24-2.12 11.68 11.68 0 018.34 0 9.64 9.64 0 013.2 2.12 9.48 9.48 0 012.1 3.18 10.46 10.46 0 01.74 3.94 10.93 10.93 0 01-.74 4 9.54 9.54 0 01-2.1 3.24 9.64 9.64 0 01-3.24 2.18 11.27 11.27 0 01-8.34 0 9.64 9.64 0 01-3.24-2.18 9.54 9.54 0 01-2.1-3.24 10.93 10.93 0 01-.7-4zm5 0a6.55 6.55 0 00.4 2.33 5.77 5.77 0 001.09 1.85 5.14 5.14 0 001.68 1.23 5.22 5.22 0 004.24 0 5.14 5.14 0 001.68-1.23 5.77 5.77 0 001.09-1.85 6.55 6.55 0 00.4-2.33 6.07 6.07 0 00-.4-2.24 5.54 5.54 0 00-1.09-1.78 5.15 5.15 0 00-1.68-1.18 5.56 5.56 0 00-4.24 0 5.15 5.15 0 00-1.68 1.18 5.54 5.54 0 00-1.09 1.78 6.07 6.07 0 00-.44 2.24zM142.31 45.19a1.41 1.41 0 011.56-1.45h2.46A1.64 1.64 0 01148 45l2.44 7c.11.31.23.65.35 1s.22.72.31 1.05l.33 1.15.33-1.15c.09-.33.2-.68.32-1.05s.23-.72.34-1l2.44-7a1.64 1.64 0 011.7-1.24h2.47a1.41 1.41 0 011.56 1.45L162 61.78a1.51 1.51 0 01-.31 1.15 1.44 1.44 0 01-1.11.41h-1.78a1.41 1.41 0 01-1.56-1.45l-.49-7.38c0-.36-.06-.74-.07-1.13s0-.75 0-1.06a10.14 10.14 0 01.06-1.1h-.06c-.12.41-.25.8-.38 1.18l-.3 1.07c-.12.39-.24.73-.35 1L154 59a1.7 1.7 0 01-1.73 1.21h-1.53A1.7 1.7 0 01149 59l-1.61-4.47c-.11-.31-.23-.65-.36-1l-.36-1.07-.38-1.18h-.06v2.16a10.33 10.33 0 01-.05 1.13l-.49 7.38a1.41 1.41 0 01-1.56 1.45h-1.81a1.44 1.44 0 01-1.11-.41 1.47 1.47 0 01-.31-1.15zM166 45.19a1.41 1.41 0 011.56-1.45H170a1.64 1.64 0 011.7 1.24l2.44 7c.11.31.22.65.34 1s.22.72.32 1.05l.33 1.15h.05l.33-1.15c.09-.33.2-.68.31-1.05s.24-.72.35-1l2.44-7a1.64 1.64 0 011.7-1.24h2.46a1.41 1.41 0 011.56 1.45l1.35 16.59a1.51 1.51 0 01-.32 1.15 1.41 1.41 0 01-1.11.41h-1.78a1.41 1.41 0 01-1.47-1.45l-.49-7.38c0-.36-.06-.74-.07-1.13s0-.75 0-1.06a10.14 10.14 0 01.06-1.1h-.06L180 52.4l-.36 1.07c-.13.39-.25.73-.36 1L177.69 59a1.7 1.7 0 01-1.69 1.19h-1.53A1.7 1.7 0 01172.7 59l-1.62-4.47c-.11-.31-.23-.65-.35-1l-.36-1.07c-.13-.38-.26-.77-.38-1.18h-.06v2.16a8.36 8.36 0 010 1.13l-.49 7.38a1.41 1.41 0 01-1.56 1.45h-1.81a1.41 1.41 0 01-1.11-.41 1.47 1.47 0 01-.32-1.15zM188.57 45.25a1.33 1.33 0 011.5-1.51h1.79a1.33 1.33 0 011.5 1.51v10.88a3 3 0 00.92 2.36 4.29 4.29 0 005 0 3 3 0 00.92-2.36V45.25a1.33 1.33 0 011.51-1.51h1.78a1.34 1.34 0 011.51 1.51v10.88a7.69 7.69 0 01-.59 3 7 7 0 01-1.66 2.38 7.43 7.43 0 01-2.58 1.56 9.36 9.36 0 01-3.34.57 9.65 9.65 0 01-3.39-.57 7.57 7.57 0 01-2.59-1.56 6.88 6.88 0 01-1.65-2.38 7.51 7.51 0 01-.59-3zM208.55 45.25a1.33 1.33 0 011.5-1.51h2.14a1.93 1.93 0 011.81 1l4.82 8.14a10.5 10.5 0 01.58 1.12c.18.39.36.75.52 1.1s.37.8.55 1.18h.05c0-.4-.07-.8-.11-1.21s-.06-.71-.08-1.09 0-.73 0-1v-7.73a1.34 1.34 0 011.51-1.51h1.78a1.33 1.33 0 011.51 1.51v16.58a1.33 1.33 0 01-1.51 1.51h-2.14a1.92 1.92 0 01-1.78-1l-4.85-8.11q-.3-.47-.6-1.05c-.2-.4-.38-.77-.52-1.11s-.38-.8-.52-1.18h-.06c0 .4.08.8.11 1.2s.07.72.08 1.1 0 .73 0 1v7.62a1.33 1.33 0 01-1.51 1.51h-1.78a1.33 1.33 0 01-1.5-1.51zM228.88 45.25a1.33 1.33 0 011.51-1.51h1.78a1.34 1.34 0 011.51 1.51v16.58a1.34 1.34 0 01-1.51 1.51h-1.78a1.33 1.33 0 01-1.51-1.51zM241.68 47.85h-4.44a1.33 1.33 0 01-1.51-1.5v-1.1a1.33 1.33 0 011.51-1.51h13.68a1.33 1.33 0 011.5 1.51v1.1a1.33 1.33 0 01-1.5 1.5h-4.44v14a1.34 1.34 0 01-1.48 1.49h-1.78a1.33 1.33 0 01-1.51-1.51zM254.48 45.25a1.33 1.33 0 011.52-1.51h1.78a1.33 1.33 0 011.5 1.51v16.58a1.33 1.33 0 01-1.5 1.51H256a1.33 1.33 0 01-1.51-1.51zM263.06 45.25a1.33 1.33 0 011.5-1.51h9.27a1.33 1.33 0 011.5 1.51v1.1a1.33 1.33 0 01-1.5 1.5h-6v3.57h4.47a1.33 1.33 0 011.51 1.5V54a1.34 1.34 0 01-1.51 1.51h-4.47v3.7h6.36a1.33 1.33 0 011.51 1.5v1.1a1.34 1.34 0 01-1.51 1.51h-9.65a1.33 1.33 0 01-1.5-1.51zM278.05 61.72a2 2 0 01-.39-.37 1.29 1.29 0 01-.23-.47 1.06 1.06 0 010-.56 2 2 0 01.34-.68l.85-1.24a1.41 1.41 0 01.91-.67 2 2 0 011.18.32l.59.33a7.29 7.29 0 00.79.39 5.33 5.33 0 001 .35 4.91 4.91 0 001.18.13 2.55 2.55 0 001.57-.39 1.21 1.21 0 00.51-1 1.41 1.41 0 00-.64-1.16 8.79 8.79 0 00-1.61-.91l-2.08-.9a10.39 10.39 0 01-2.08-1.19 6.51 6.51 0 01-1.61-1.7 4.83 4.83 0 01-.64-2.56 5.55 5.55 0 01.54-2.46 5.66 5.66 0 011.46-1.9 6.45 6.45 0 012.22-1.22 8.88 8.88 0 012.77-.43 9.82 9.82 0 013.15.48 8.89 8.89 0 012.14 1 1.48 1.48 0 01.68.94 1.72 1.72 0 01-.22 1.11l-.65 1.29c-.28.53-.59.8-.95.81a2.3 2.3 0 01-1.11-.29c-.46-.22-.93-.42-1.41-.62a4.61 4.61 0 00-1.69-.28 2.69 2.69 0 00-1.64.39 1.21 1.21 0 00-.49 1 1.39 1.39 0 00.64 1.17 7.66 7.66 0 001.6.88c.64.28 1.34.56 2.09.86a9.82 9.82 0 012.08 1.16 6.12 6.12 0 011.6 1.67 4.75 4.75 0 01.65 2.56 6.18 6.18 0 01-.45 2.35 5.65 5.65 0 01-1.33 1.94 6.46 6.46 0 01-2.17 1.33 8.14 8.14 0 01-2.93.5 9.8 9.8 0 01-2-.2 12 12 0 01-1.75-.47 11.82 11.82 0 01-1.46-.64 6.54 6.54 0 01-1.01-.65zM100.65 71.29a1.33 1.33 0 011.51-1.51h9a1.33 1.33 0 011.5 1.51v1.09a1.33 1.33 0 01-1.5 1.51h-5.71V78h4.47a1.33 1.33 0 011.51 1.51v1.09a1.33 1.33 0 01-1.51 1.51h-4.47v5.76a1.33 1.33 0 01-1.5 1.5h-1.78a1.33 1.33 0 01-1.51-1.5zM113.83 79.45a10.45 10.45 0 01.74-3.93 9.38 9.38 0 012.1-3.18 9.64 9.64 0 013.24-2.12 11.68 11.68 0 018.34 0 9.64 9.64 0 013.24 2.12 9.38 9.38 0 012.1 3.18 10.45 10.45 0 01.74 3.93 10.86 10.86 0 01-.74 4 9.58 9.58 0 01-2.1 3.25 9.79 9.79 0 01-3.24 2.18 11.4 11.4 0 01-8.34 0 9.79 9.79 0 01-3.24-2.18 9.58 9.58 0 01-2.1-3.25 10.86 10.86 0 01-.74-4zm5 0a6.52 6.52 0 00.4 2.33 5.77 5.77 0 001.09 1.85 5.32 5.32 0 001.68 1.24 5.22 5.22 0 004.24 0 5.32 5.32 0 001.68-1.24 5.77 5.77 0 001.08-1.85 6.52 6.52 0 00.4-2.33 6 6 0 00-.4-2.23 5.43 5.43 0 00-1.09-1.78 5 5 0 00-1.68-1.18 5.44 5.44 0 00-4.24 0 5 5 0 00-1.68 1.18 5.43 5.43 0 00-1.09 1.78 6 6 0 00-.43 2.23zM136.91 71.29a1.33 1.33 0 011.5-1.51h1.79a1.33 1.33 0 011.5 1.51v10.88a2.94 2.94 0 00.92 2.35 4.24 4.24 0 005 0 2.94 2.94 0 00.92-2.35V71.29a1.33 1.33 0 011.46-1.51h1.78a1.34 1.34 0 011.51 1.51v10.88a7.67 7.67 0 01-.59 3 7.08 7.08 0 01-1.66 2.39 7.43 7.43 0 01-2.58 1.56 9.59 9.59 0 01-3.34.56 9.88 9.88 0 01-3.39-.56 7.57 7.57 0 01-2.59-1.56 6.92 6.92 0 01-1.65-2.39 7.5 7.5 0 01-.59-3zM156.89 71.29a1.33 1.33 0 011.5-1.51h2.14a1.94 1.94 0 011.81 1l4.82 8.14a11.93 11.93 0 01.58 1.07l.52 1.1c.18.4.36.79.55 1.18h.05c0-.41-.07-.81-.11-1.21s-.06-.71-.08-1.1 0-.73 0-1v-7.67a1.34 1.34 0 011.51-1.51h1.78a1.33 1.33 0 011.51 1.51v16.58a1.33 1.33 0 01-1.51 1.5h-2.14a1.91 1.91 0 01-1.78-1l-4.85-8.11a11.14 11.14 0 01-.6-1.06c-.2-.39-.38-.76-.52-1.11a10.9 10.9 0 01-.52-1.18h-.06c0 .41.07.81.11 1.21s.07.71.08 1.1 0 .73 0 1v7.62a1.33 1.33 0 01-1.51 1.5h-1.78a1.33 1.33 0 01-1.5-1.5zM177.22 71.29a1.33 1.33 0 011.51-1.51h5.45a12.51 12.51 0 014.18.66 8.64 8.64 0 013.19 1.9 8.29 8.29 0 012 3.07 12.37 12.37 0 010 8.26 8.32 8.32 0 01-2 3.1 8.83 8.83 0 01-3.19 1.93 12.26 12.26 0 01-4.18.67h-5.45a1.33 1.33 0 01-1.51-1.5zm6.77 14a5.24 5.24 0 003.92-1.45 5.86 5.86 0 001.42-4.28 5.64 5.64 0 00-1.45-4.23 5.34 5.34 0 00-3.88-1.44h-2v11.37zM200.87 71a1.65 1.65 0 011.7-1.23H205a1.65 1.65 0 011.7 1.23l5.67 16.64a1.32 1.32 0 01-.07 1.26 1.35 1.35 0 01-1.16.46h-1.81a1.65 1.65 0 01-1.7-1.26l-.82-2.85h-6.12l-.82 2.85a1.58 1.58 0 01-1.67 1.26h-1.81a1.34 1.34 0 01-1.16-.46 1.32 1.32 0 01-.07-1.26zm4.85 10.42l-1.09-3.81c-.09-.31-.18-.66-.26-1s-.17-.75-.26-1.1-.19-.81-.28-1.23h-.05c-.09.42-.19.83-.28 1.23s-.18.71-.26 1.1-.17.73-.26 1l-1.12 3.81zM217.29 73.89h-4.44a1.33 1.33 0 01-1.51-1.51v-1.09a1.33 1.33 0 011.51-1.51h13.67a1.33 1.33 0 011.48 1.51v1.09a1.33 1.33 0 01-1.51 1.51h-4.44v14a1.33 1.33 0 01-1.5 1.5h-1.75a1.33 1.33 0 01-1.51-1.5zM230.09 71.29a1.33 1.33 0 011.5-1.51h1.79a1.33 1.33 0 011.5 1.51v16.58a1.33 1.33 0 01-1.5 1.5h-1.79a1.33 1.33 0 01-1.5-1.5zM237.65 79.45a10.45 10.45 0 01.74-3.93 9.38 9.38 0 012.1-3.18 9.59 9.59 0 013.25-2.12 11.65 11.65 0 018.33 0 9.64 9.64 0 013.24 2.12 9.38 9.38 0 012.1 3.18 10.45 10.45 0 01.74 3.93 10.86 10.86 0 01-.74 4 9.58 9.58 0 01-2.1 3.25 9.79 9.79 0 01-3.24 2.18 11.37 11.37 0 01-8.33 0 9.73 9.73 0 01-3.25-2.18 9.58 9.58 0 01-2.1-3.25 10.86 10.86 0 01-.74-4zm5 0a6.52 6.52 0 00.4 2.33 5.61 5.61 0 001.1 1.85 5.17 5.17 0 001.67 1.24 5.22 5.22 0 004.24 0 5.32 5.32 0 001.68-1.24 5.77 5.77 0 001.09-1.85 6.52 6.52 0 00.4-2.33 6 6 0 00-.4-2.23 5.43 5.43 0 00-1.09-1.78 5 5 0 00-1.74-1.18 5.44 5.44 0 00-4.24 0 4.87 4.87 0 00-1.67 1.18 5.29 5.29 0 00-1.1 1.78 6 6 0 00-.38 2.23zM260.92 71.29a1.33 1.33 0 011.51-1.51h2.13a1.93 1.93 0 011.81 1l4.83 8.14a11.91 11.91 0 01.57 1.07c.18.38.36.75.52 1.1s.37.79.55 1.18h.06c0-.41-.08-.81-.11-1.21s-.07-.71-.09-1.1 0-.73 0-1v-7.67a1.33 1.33 0 011.5-1.51h1.8a1.33 1.33 0 011.51 1.51v16.58a1.33 1.33 0 01-1.51 1.5h-2.13a1.89 1.89 0 01-1.78-1l-4.86-8.11a11.14 11.14 0 01-.6-1.06c-.2-.39-.37-.76-.52-1.11s-.37-.79-.52-1.18h-.05c0 .41.07.81.1 1.21s.07.71.09 1.1 0 .73 0 1v7.62a1.33 1.33 0 01-1.5 1.5h-1.78a1.33 1.33 0 01-1.51-1.5z"/>
    </g>
  </g>
</svg>