<?xml version="1.0" encoding="utf-8"?>
<!-- Generator: Adobe Illustrator 27.8.0, SVG Export Plug-In . SVG Version: 6.00 Build 0)  -->
<svg version="1.1" id="Layer_1" xmlns="http://www.w3.org/2000/svg" xmlns:xlink="http://www.w3.org/1999/xlink" x="0px" y="0px"
	 viewBox="0 0 1000.7 999.7" style="enable-background:new 0 0 1000.7 999.7;" xml:space="preserve">
<style type="text/css">
	.st0{fill:#EA005E;}
	.st1{fill:#FFFFFF;}
	.st2{fill:#003263;}
</style>
<g>
	<rect x="1" class="st0" width="999.7" height="999.7"/>
	<g>
		<path d="M797.4,214.2c1.2,3.5,4.2,4.1,6.6,1.3c0,0,1.6-3.6,3.5-5.6s5.1-4.2,5.1-4.2c2.4-2.8,1.5-5.6-2.1-6.3c0,0-3.4-2.7-6.6-3.1
			c-4-0.6-6.5,0.5-6.5,0.5c-3.6-0.7-5.6,1.6-4.4,5.1c0,0,1.8,2.6,2.5,4.8C796.3,208.8,797.4,214.2,797.4,214.2L797.4,214.2z"/>
		<path d="M809.4,228.1c-2.5,3-6.1,4.7-9.9,4.7c-6.1,0-11.4-4.4-12.7-10.4c-0.5-2.2-1-8.1-3.3-8.1c-4.4,0-3.2,4.9-3.2,4.9
			c2,9.8,10.7,16.9,20.7,16.9c6.3,0,12.2-2.8,16.2-7.6c1.5-1.7,1.2-4.3-0.5-5.8S810.9,226.3,809.4,228.1L809.4,228.1z"/>
		<path d="M776.4,95c1.7,1.5,4.3,1.3,5.8-0.3c1.5-1.7,1.4-4.3-0.3-5.8c-4.6-4.2-10.6-6.4-16.8-6.4c-13.9,0-25.2,11.4-25.2,25.4
			l0.5,5.1c0.2,2.3,2.2,3.5,4.4,3.2c2.2-0.2,0.8-5.3,0.6-7.6l-0.4-3.5c0-9.4,7.6-17.1,17.1-17.1C766.2,88,773.2,92.2,776.4,95
			L776.4,95z"/>
		<path d="M663.7,102.8c-9.2,0-16.6,9.3-16.6,20.9c0,11.6,7.4,20.9,16.6,20.9s16.6-9.4,16.6-20.9S672.9,102.8,663.7,102.8z
			 M666.5,137.6c-5,1.1-10.6-4.3-12.2-11.7c-1.6-7.4,2.5-17.3,7.5-18.4c5-1.1,10.6,4.2,12.2,11.7
			C675.7,126.6,671.5,136.5,666.5,137.6L666.5,137.6z"/>
		<path class="st1" d="M840.2,258.3c-1.1-2.7-2.8-3.8-4.1-4.2c-4.3-1.4-16.8-1.3-29.7-0.9l-2.6,0.1c-1.7-1.1-5.7-3.6-9.4-4.3
			c-3.4-0.6-6.3,0.1-8.1,0.8c-25.2-13.9-28.6-10.6-29.9-9.3l-1.9,1.5c-4.2,3.2-6.8,5.3-6.7,8c0.1,3.3,2,7.2,3.8,10.9
			c0.9,1.8,2.2,4.6,2.2,5.4c0,0.9,0.3,2.7,2.4,4c3.4,2.2,10.1,2.2,13.5,0.7c2-0.9,10.1-1.9,15.7-2.3c7.9,2.4,11.6,2.7,13.5,2.5
			c1.6,1.1,4.9,3.9,7,5.7l4.4,3.7c0.1,0.1,9.8,7.6,14.3,4.9c0.9-0.5,1.4-1.4,1.7-2.4c0.5-0.3,1.9-1.3,1.9-1.3
			c3.3-2.1,8.3-5.4,10.9-9.8c1.4-2.4,2.1-5.7,2.1-8.8C841,261.4,840.7,259.7,840.2,258.3L840.2,258.3z"/>
		<path d="M840.2,258.3c-1.1-2.7-2.8-3.8-4.1-4.2c-4.3-1.4-16.8-1.3-29.7-0.9l-2.6,0.1c-1.7-1.1-5.7-3.6-9.4-4.3
			c-3.4-0.6-6.3,0.1-8.1,0.8c-25.2-13.9-28.6-10.6-29.9-9.3l-1.9,1.5c-4.2,3.2-6.8,5.3-6.7,8c0.1,3.3,2,7.2,3.8,10.9
			c0.9,1.8,2.2,4.6,2.2,5.4c0,0.9,0.3,2.7,2.4,4c3.4,2.2,10.1,2.2,13.5,0.7c2-0.9,10.1-1.9,15.7-2.3c7.9,2.4,11.6,2.7,13.5,2.5
			c1.6,1.1,4.9,3.9,7,5.7l4.4,3.7c0.1,0.1,9.8,7.6,14.3,4.9c0.9-0.5,1.4-1.4,1.7-2.4c0.5-0.3,1.9-1.3,1.9-1.3
			c3.3-2.1,8.3-5.4,10.9-9.8c1.4-2.4,2.1-5.7,2.1-8.8C841,261.4,840.7,259.7,840.2,258.3L840.2,258.3z M793.2,254.8
			c1.8,0.3,3.9,1.4,5.6,2.4c-0.9,1.9-1.9,4.6-2.4,7.9c-1.9-0.2-6.9,1.2-10.1-2c-0.5-1.6-0.2-4-0.2-5c0-0.1,0.3-0.9,0.3-0.9
			c0.1-1,1.2-0.9,1.7-1.8C789.1,255,791.1,254.4,793.2,254.8L793.2,254.8z M767.2,265.6c-2,0.9-6.3,0.5-7.6-0.1
			c-0.2-2-1.3-4.3-2.7-7.2c-1.3-2.7-2.8-5.9-3.1-8c0.8-0.9,3.2-2.8,4.2-3.6c0,0,1.5-1.2,2.1-1.7c2.7-0.2,12.9,4.3,21.9,9.1
			c-0.5,1.2-1,2.5-1.1,3.9c-0.1,1.5,0.2,3.3,0.6,4.9C777,263.5,769.9,264.4,767.2,265.6L767.2,265.6z M833.7,269.1
			c-1.8,3.2-6.1,6-8.9,7.8c-1.8,1.1-3,3-3.8,4c-1.8-0.5-4.9-3-7.1-4.9l-4.4-3.6c-3.7-3.1-5.8-4.9-7.3-6c0.5-3.3,0.4-7,1.2-8.4
			c0.5,0,1.1,0,2-0.1c5.9-0.2,24.9,0.5,28.8,1.8c0,0,0.2,0.2,0.4,0.7c0.3,0.7,0.4,1.7,0.4,2.8C835,265.2,834.5,267.5,833.7,269.1
			L833.7,269.1z"/>
		<path d="M770.1,160.8c-2.7,0.2-4.6,3.6-4.2,7.6c0.4,3.9,2.8,7,5.5,6.7c2.7-0.2,4.6-3.6,4.2-7.6
			C775.3,163.5,772.8,160.5,770.1,160.8L770.1,160.8z"/>
		<path d="M848.5,188.1c2.5,1.2,5.9-0.7,7.6-4.3c1.7-3.6,1.2-7.4-1.3-8.6c-2.4-1.2-5.8,0.7-7.6,4.2
			C845.6,183.1,846.1,186.9,848.5,188.1z"/>
		<path d="M782.2,160.2c0.8,2.1,4.8-1.9,6.9-2.7c16.6-6.5,37.5,2.1,51.6,13.1c0.7,0.6,2.6,0.9,3.6-0.3c1-1.2,0.7-2.6-0.1-3.6
			c-12.2-12-35.8-19.8-55-12.3C787.1,155.2,781.4,158.1,782.2,160.2L782.2,160.2z"/>
		<path class="st1" d="M956.2,399.2c-8.5-72.3-44.1-132.2-89.6-152.1c25.3-12.9,43.7-35.9,48.8-64c19.7-8.5,32.4-27.6,32.4-49.2
			c0-29.5-23.9-53.5-53.3-53.5c-9.2,0-18,2.4-25.8,6.7C856,76.4,840.2,70.6,824,70.6c-6.2,0-12.3,0.9-18.3,2.6
			c-10.2-12.7-24.4-19.8-41.3-19.8c-29.4,0-53.3,24-53.3,53.5c0,10.5,3,20.5,8.7,29.2c-2.8,7.6-4.5,15.5-5.1,23.5
			c-2,29.7,12,57,35.2,75.4c-3.9,1.8-7.7,3.8-11.3,6.1c-19.6-11.8-37.6-34.2-44.8-58.5c-4.8-16.1-6.5-24.4-3.9-38.8
			c0.9-4.9,1.4-10.6,1.4-17c0-9.8-1.4-18.3-4.6-27.7c-3.4-10.2-13.1-17-24-17c-9.1,0-17.3,5.1-21.8,12.8c-0.2,0.2-0.4,0.3-0.5,0.6
			l-0.1,0.1l0,0l-0.6,1.2c0,0,0,0,0.1-0.1v0.1c0,0.1-0.1,0.1-0.1,0.2v0.1c-15,28-22.3,52.4-22.3,85.3c0,58.8,25.3,113.8,67.8,147.6
			c-2.2,11.7-3.3,24.1-3.3,37c0,11.9,1,23.4,2.7,34.5c-0.5,0.4-1,0.9-1.2,1.6c-7.7,17.6-12,39.8-12,62.6c0,26,3.1,34.2,9.5,49.5
			c0.6,7.5,1.6,15.1,3.2,22.6c4.3,21,11.1,38.8,20.1,53c0.1,0.7,0.3,1.6,0.3,1.6c1.8,9,5.2,17.2,9.5,23.6c-2.3,0.3-4.6,0.7-7.4,1.3
			c-8.4,1.9-15.9,5.2-21.9,9.7c-0.1,0-0.3,0-0.4,0.1c-10.9,4.6-20,18.1-20,25.4c0,13,12.3,23.3,28.1,23.5c2.5,0.2,42.8,4.3,89.3-7.1
			c7.2-1.8,12.6-9.1,12.6-17.3c0,0.1,0,0.2,0,0.4c0.1-0.7,0.7-8.1,0.7-19.5c0-16.5-1.3-41.3-7.2-66c0-1.1,0.1-4.4,0.1-8.7
			c0-7.8-0.4-18.5-1.8-24.3c0-0.1-0.1-0.2-0.1-0.3l-1.5-4.4c-0.5-1.5-1.9-2.6-3.5-2.8c-0.3,0-0.5,0-0.8,0c-0.4-2.5-0.7-5.1-0.9-7.8
			c2.3,0.2,4.6,0.4,6.9,0.4c1.6,13.6,3.3,23.5,7.4,35.7c0,0.1,0.8,3,0.8,3c0,0.1,0,0.2,0.1,0.3c3.6,10.7,6.1,22.2,7.4,34.2
			c0.7,6.3,1.1,13,1.1,19.8c0,16.1-2,32.5-5.6,45.3l-0.4,1.3c-0.8,2.4-1.9,6-1.9,9.6c0,18.4,24.2,32.9,55.2,32.9s52-14.6,52-33.8
			c0-14.4-13.4-25.7-33.6-30c-0.1-8.6,1.4-27,10.3-62.2c3.5-14,7.7-25,11.3-34.8c2.4-6.3,4.4-12,6-17.5c6.7-0.1,14.1-3.5,20.6-9.9
			c0.3,0.2,0.5,0.4,0.8,0.6c1,0.5,2.2,0.7,3.3,0.4c21.8-7.5,37-34.8,37-66.4c0,0.2,0.4-10.2,0.4-10.2
			C958.3,424.2,957.7,411.7,956.2,399.2L956.2,399.2z"/>
		<path class="st2" d="M797,213.7c1.2,3.5,4.2,4.1,6.6,1.3c0,0,1.6-3.6,3.5-5.6s5.1-4.2,5.1-4.2c2.4-2.8,1.5-5.6-2.1-6.4
			c0,0-3.4-2.7-6.6-3.1c-4.1-0.6-6.5,0.5-6.5,0.5c-3.6-0.7-5.6,1.6-4.4,5.1c0,0,1.8,2.7,2.5,4.8C795.8,208.3,797,213.7,797,213.7
			L797,213.7z"/>
		<path class="st2" d="M809,227.6c-2.5,3-6.1,4.7-9.9,4.7c-6.2,0-11.5-4.4-12.7-10.4c-0.5-2.2-1-8.1-3.3-8.1c-4.4,0-3.2,4.9-3.2,4.9
			c2,9.9,10.8,17,20.8,17c6.3,0,12.2-2.8,16.2-7.6c1.5-1.7,1.2-4.4-0.5-5.8C814.6,220.8,810.4,225.9,809,227.6z"/>
		<path class="st2" d="M775.8,94.1c1.7,1.5,4.3,1.3,5.8-0.3c1.5-1.7,1.4-4.3-0.4-5.8c-4.6-4.2-10.6-6.4-16.8-6.4
			c-13.9,0-25.3,11.4-25.3,25.4l0.5,5.1c0.2,2.3,2.2,3.5,4.4,3.2c2.2-0.2,0.9-5.3,0.6-7.6l-0.4-3.5c0-9.5,7.7-17.2,17.1-17.2
			C765.7,87,772.7,91.3,775.8,94.1L775.8,94.1z"/>
		<path class="st2" d="M889.7,114.8c2.4-1.3,5-1.9,7.7-1.9c9.4,0,17.1,7.7,17.1,17.2c0,4.6-1.8,8.9-5,12.1c-1.6,1.6-4.5,8-2.9,9.6
			s4.2,1.6,5.8,0c4.8-4.8,7.4-11.2,7.4-18c0-14-11.3-25.4-25.3-25.4c-3.9,0-7.9,0.9-11.4,2.8c-2,1-2.8,3.5-1.8,5.5
			C882.4,118.8,887.7,115.9,889.7,114.8L889.7,114.8z"/>
		<path class="st2" d="M956.2,399.2c-8.5-72.3-44.1-132.2-89.6-152.1c25.3-12.9,43.7-35.9,48.8-64c19.7-8.5,32.4-27.6,32.4-49.2
			c0-29.5-23.9-53.5-53.3-53.5c-9.2,0-18,2.4-25.8,6.7C856,76.4,840.2,70.6,824,70.6c-6.2,0-12.3,0.9-18.3,2.6
			c-10.2-12.7-24.4-19.8-41.3-19.8c-29.4,0-53.3,24-53.3,53.5c0,10.5,3,20.5,8.7,29.2c-2.8,7.6-4.5,15.5-5.1,23.5
			c-2,29.7,12,57,35.2,75.4c-3.9,1.8-7.7,3.8-11.3,6.1c-19.6-11.8-37.6-34.2-44.8-58.5c-4.8-16.1-6.5-24.4-3.9-38.8
			c0.9-4.9,1.4-10.6,1.4-17c0-9.8-1.4-18.3-4.6-27.7c-3.4-10.2-13.1-17-24-17c-9.1,0-17.3,5.1-21.8,12.8c-0.2,0.2-0.4,0.3-0.5,0.6
			l-0.1,0.1l0,0l-0.6,1.2c0,0,0,0,0.1-0.1v0.1c0,0.1-0.1,0.1-0.1,0.2v0.1c-15,28-22.3,52.4-22.3,85.3c0,58.8,25.3,113.8,67.8,147.6
			c-2.2,11.7-3.3,24.1-3.3,37c0,11.9,1,23.4,2.7,34.5c-0.5,0.4-1,0.9-1.2,1.6c-7.7,17.6-12,39.8-12,62.6c0,26,3.1,34.2,9.5,49.5
			c0.6,7.5,1.6,15.1,3.2,22.6c4.3,21,11.1,38.8,20.1,53c0.1,0.7,0.3,1.6,0.3,1.6c1.8,9,5.2,17.2,9.5,23.6c-2.3,0.3-4.6,0.7-7.4,1.3
			c-8.4,1.9-15.9,5.2-21.9,9.7c-0.1,0-0.3,0-0.4,0.1c-10.9,4.6-20,18.1-20,25.4c0,13,12.3,23.3,28.1,23.5c2.5,0.2,42.8,4.3,89.3-7.1
			c7.2-1.8,12.6-9.1,12.6-17.3c0,0.1,0,0.2,0,0.4c0.1-0.7,0.7-8.1,0.7-19.5c0-16.5-1.3-41.3-7.2-66c0-1.1,0.1-4.4,0.1-8.7
			c0-7.8-0.4-18.5-1.8-24.3c0-0.1-0.1-0.2-0.1-0.3l-1.5-4.4c-0.5-1.5-1.9-2.6-3.5-2.8c-0.3,0-0.5,0-0.8,0c-0.4-2.5-0.7-5.1-0.9-7.8
			c2.3,0.2,4.6,0.4,6.9,0.4c1.6,13.6,3.3,23.5,7.4,35.7c0,0.1,0.8,3,0.8,3c0,0.1,0,0.2,0.1,0.3c3.6,10.7,6.1,22.2,7.4,34.2
			c0.7,6.3,1.1,13,1.1,19.8c0,16.1-2,32.5-5.6,45.3l-0.4,1.3c-0.8,2.4-1.9,6-1.9,9.6c0,18.4,24.2,32.9,55.2,32.9s52-14.6,52-33.8
			c0-14.4-13.4-25.7-33.6-30c-0.1-8.6,1.4-27,10.3-62.2c3.5-14,7.7-25,11.3-34.8c2.4-6.3,4.4-12,6-17.5c6.7-0.1,14.1-3.5,20.6-9.9
			c0.3,0.2,0.5,0.4,0.8,0.6c1,0.5,2.2,0.7,3.3,0.4c21.8-7.5,37-34.8,37-66.4c0,0.2,0.4-10.2,0.4-10.2
			C958.3,424.2,957.7,411.7,956.2,399.2L956.2,399.2z M898.7,421.7c0-1.2-0.1-2.5-0.1-3.7c3.7-3,8.8-5.1,13.1-6.1
			c13.2-3,29.1,2.4,38,9.5c0.2,5,0.3,10,0.1,15c0-0.1-0.4,10.4-0.4,10.4c0,6.3-0.7,12.5-2,18.3c-8-13.3-24.2-21.3-43.3-20.4
			c-2.6,0.1-5.2,0.4-7.9,0.9C897.8,437.8,898.7,429.8,898.7,421.7L898.7,421.7z M913.6,407.3c-5.2,1.2-10.5,2.7-15.1,5.9
			c-0.7-10.1-2.6-20.1-5.6-29.5c4.1-3.2,8.4-6,13.1-8c12.8-5.7,28.5-4.5,38.6,1.1c1.5,7.7,2.8,15.5,3.7,23.4c0.4,3.7,0.7,7.4,1.1,11
			C939.2,405.8,926.6,404.4,913.6,407.3L913.6,407.3z M719.7,158.6c0.4-6.2,1.6-12.3,3.5-18.2c1.4,0.9,3.3,0.8,4.6-0.2
			c1.8-1.4-1.1-5.8-2.2-7.7c-4.4-7.6-7.2-15.6-7.2-25.7c0-24.9,21.6-47.8,46.5-47.8c11.2,0,21.9,4.3,30,11.5
			c6.1,4.7,11.9,12.5,15.2,15.2c1.4-0.6,2-3.1-0.1-6.4c-0.4-0.6-0.8-1.3-1.3-1.9c4.5-1.1,9-1.6,13.6-1.6c13.6,0,28.2,7.4,39.2,16.2
			c-1.6,1.3-3.2,2.7-4.7,4.2c-0.3,0.3-0.5,0.7-0.7,1c1.8,1.7,8.6-1.4,15.1-5.6c5.1-3.1,13.6-5.3,21.1-5.3
			c24.9,0,47.3,22.7,47.3,47.7c0,18.5-10.9,34.8-27.9,41.8c-2,0.1-3.7,1.5-4,3.5c-5.2,34.9-34.5,63.1-70.9,71.2
			c3.5-1.9,6.7-4.1,9.6-6.8c5.9-5.5,10.2-11.9,12.9-19.3c0.8-2.1-0.3-4.5-2.4-5.3c-2.1-0.8-5,0.2-5.3,2.4c-1,7.4-8.6,15.3-13.5,19.9
			c-8.2,7.6-18.6,11-29.4,11c-6.7-0.5-13.1-1.6-19.4-3.4c-7-2.4-13.8-6.2-19.7-11c-20.5-16.8-15.1-42.7-18.7-43.6
			c-0.3,0.5-0.5,1-0.6,1.6c-2.6,13.8,1.1,27.9,9.8,39.3C734.3,217.7,717.6,188.7,719.7,158.6L719.7,158.6z M623.8,179.9
			c0-31.9,7.1-55.2,21.7-82.1c2.8-6,8.9-9.9,15.6-9.9c7.4,0,15.1,7.3,17.9,13.9c3.3,8,5.4,15.8,5.4,24.5c0,5.9-0.1,11.4-0.5,16.3
			c-1.5,15.9-1,21.6,3.2,35.6c8.1,26.9,22,47.9,42.1,63.2c0.5,0.4,2.5,1.8,4.5,3.1c-22.4,16.4-38.9,43.4-46.7,76.4
			C648.4,288.4,623.9,234.7,623.8,179.9L623.8,179.9z M692,536c-0.6-3-1.1-6-1.6-9c5.8,8,13.5,14.7,23.9,19.2
			c24.1,10.3,50.3,6.9,64.1-7.3c0.7,5.2,0.9,12.6,0.9,18.7v3.5c-0.3,0.3-0.5,0.6-0.7,1c-6.4,14.7-30.3,25.3-56.8,25.3
			c-3.5,0-7-0.2-10.5-0.6C702.7,573.5,696.2,556.3,692,536L692,536z M786.4,629.5c-30.5,2.5-53.5-8.2-53.8-8.3
			c-0.2-0.1-0.5-0.2-0.7-0.2c-2.2-0.6-4.6-2.1-6.9-4.3l0,0c-5.7-5.5-10.4-15.1-12.6-25.8c2.9,0.2,5.7,0.4,8.6,0.4
			c25.1,0,48.2-5.5,59.7-17.7C785.1,594.3,786.3,614.8,786.4,629.5L786.4,629.5z M785.8,651v0.3c0,0.4-0.1,0.7-0.1,1.1
			c-2.9-5.2-7.3-10-12.7-14.3c4.2,0.1,8.7,0.1,13.4-0.3C786.3,645.9,785.9,650.9,785.8,651z M692.6,667.5c-11.4,0-20.8-7-20.8-15.5
			c0-3.1,9.1-15.4,17.7-19.1l0,0c0.4-0.1,0.9-0.1,1.2-0.4l0,0l4.5,1.3c7.6,2.7,13.9,7.2,18.7,12.4c-8.9,3.4-15.3,9.3-18.1,17
			c-0.5,1.5-0.9,2.9-1.1,4.4c-1.1-0.1-1.6-0.2-1.7-0.2C692.9,667.5,692.7,667.5,692.6,667.5L692.6,667.5z M703,668.2
			c0.1-0.7,0.3-1.4,0.6-2.1c2.2-6,5.6-13.6,13.5-16.1c4.4,5.8,6.9,12.2,7.5,18.1C715.8,668.5,708.4,668.4,703,668.2z M732.7,667.7
			c-1.9-15.5-16.4-30.7-37.2-38.3c3.6-1.9,7.5-3,12.8-4.2c4.3-1,8.5-1.4,12.6-1.4c2.7,2.3,5.5,4,8.4,4.8c1.4,0.7,15.2,6.9,35.6,8.9
			c9.4,6.2,13.3,14.5,15.6,22.8c-0.3,0.1-0.6,0.2-0.9,0.3C762.6,664.8,746.4,666.8,732.7,667.7L732.7,667.7z M773,533.1
			c-11.3,12.7-33.9,18.2-55.2,9.1c-13.1-5.6-23.8-18.3-29.1-29.1c0-0.2-0.1-0.4-0.2-0.6c-6.1-14.2-11.2-22.2-11.2-47.5
			c0-20.2,2.2-40.8,8.4-56.9c11,56.7,44.1,100,84.9,108.8C771,522.5,771.8,528,773,533.1L773,533.1z M688.6,366.3
			c0-59.1,24.4-111.4,63.2-129.4c16,11.7,35.9,19.3,57.5,20.8c18.4,1.3,35.9-2,51.1-8.9c0.3,0.2,0.6,0.3,0.9,0.4
			c38.1,13.2,66.9,60.7,79.9,118.4c-11.1-4.4-24.4-4.5-37.2,1.2c-5.1,2.2-10,5.2-14.5,8.8c-2.2-5.9-4.9-11.6-8-16.6
			c-5.1-8.3-14.5-23.4-19.7-44.3c-3.5-12.4-3.3-21.8-4.8-25c-2-2-1.5,0.8-1.5,1.1c0,4.7,0.1,9.5,0.6,14.2
			c1.9,21.4,8.2,41.5,18.5,58.3c9.1,15,14.6,35.9,14.6,55.7c0,4.3-0.3,8.6-0.7,12.9c-31.3-5-67.1,13.7-90.3,47.5
			c-6.1,8.9-10.9,18.4-14.4,28.2C731.1,508.8,688.6,444.8,688.6,366.3L688.6,366.3z M849.9,692.3c-5.5,0-10.8-0.6-15.8-1.5
			c9.2-7.2,27.8-19.9,43.4-19.9c5,0,9.6,1.3,13.9,4C886,684.4,871.4,692.3,849.9,692.3L849.9,692.3z M870.6,572.6
			c-8.4,33.1-10.4,52.1-10.5,62.8c-3.3-0.3-6.7-0.5-10.2-0.5c-5.9,0-12.6,1.2-16.3,2.4c-1.1,0.3-4.8,1.6-2.8,1.9
			c4.9,0.8,16.4-0.2,19.6-0.1c25.3,1,43.3,13.9,43.3,27.6c0,1.6-0.3,3.3-0.9,4.9c-5.4-3.2-11.4-4.9-17.7-4.9
			c-21.9,0-44.9,16.9-50.7,21.5c-12.8-4.5-21.5-12.1-21.5-20.5c0-2.3,0.9-5.1,1.6-7.1l0.5-1.6c5.4-19,7.3-45.9,4.8-68.3
			c-1.4-12.6-4-24.6-7.7-35.8l-0.8-2.9c0-0.1-0.1-0.2-0.1-0.3c-4.1-12-5.7-21.7-7.3-35.4c0,0-0.3-2.3-0.6-5
			c3.3-8.6,7.6-16.9,13-24.8c21.2-30.9,55-52.9,83-48.3c-1.9,13-6.1,25.2-12.2,35.5c-0.7,1.2-0.8,2.6-0.3,3.9c0.4,0.9,1,1.6,1.9,2
			c-6.1,18.3-2.2,35.5,9.6,40.9c0.3,0.2,0.6,0.2,1,0.4c-0.9,2.4-1.9,4.6-3.5,9.1C882,540,874.3,558.2,870.6,572.6L870.6,572.6z
			 M891.6,513.2c-7.8-3.6-9.9-17.4-5-31.5c7.3,1.8,15,4.6,20,9.2c4.8,4.4,6.3,10.3,7.7,16.1C907.2,515.6,897.7,515.9,891.6,513.2z
			 M921.6,503.7c-2.6-6.5-6.7-12.5-12.3-17.7c-6.5-5.9-14.3-10.2-22.8-12.6c3.5-6.7,6.3-14,8.3-21.7c2.7-0.9,5.5-1.8,8.1-1.9
			c19.9-0.9,37,11.7,40.9,27.4C938.7,489.4,931,499,921.6,503.7L921.6,503.7z"/>
		<path class="st1" d="M839.8,257.9c-1.1-2.7-2.9-3.8-4.1-4.2c-4.3-1.4-16.9-1.3-29.8-0.9l-2.6,0.1c-1.7-1.2-5.7-3.6-9.4-4.3
			c-3.4-0.6-6.3,0.1-8.1,0.8c-25.2-14-28.7-10.6-30-9.3l-1.9,1.5c-4.2,3.2-6.8,5.3-6.7,8c0.1,3.3,2,7.2,3.8,10.9
			c0.9,1.8,2.2,4.6,2.2,5.4c0,0.9,0.3,2.7,2.4,4c3.4,2.2,10.2,2.2,13.5,0.8c2-0.9,10.2-1.9,15.7-2.3c7.9,2.4,11.6,2.7,13.5,2.5
			c1.6,1.1,4.9,3.9,7,5.7l4.4,3.7c0.1,0.1,9.8,7.6,14.4,5c0.9-0.5,1.4-1.4,1.7-2.4c0.5-0.3,1.9-1.3,1.9-1.3
			c3.3-2.1,8.3-5.4,10.9-9.9c1.4-2.4,2.1-5.7,2.1-8.8C840.7,261.1,840.4,259.4,839.8,257.9L839.8,257.9z"/>
		<path class="st2" d="M839.8,257.9c-1.1-2.7-2.9-3.8-4.1-4.2c-4.3-1.4-16.9-1.3-29.8-0.9l-2.6,0.1c-1.7-1.2-5.7-3.6-9.4-4.3
			c-3.4-0.6-6.3,0.1-8.1,0.8c-25.2-14-28.7-10.6-30-9.3l-1.9,1.5c-4.2,3.2-6.8,5.3-6.7,8c0.1,3.3,2,7.2,3.8,10.9
			c0.9,1.8,2.2,4.6,2.2,5.4c0,0.9,0.3,2.7,2.4,4c3.4,2.2,10.2,2.2,13.5,0.8c2-0.9,10.2-1.9,15.7-2.3c7.9,2.4,11.6,2.7,13.5,2.5
			c1.6,1.1,4.9,3.9,7,5.7l4.4,3.7c0.1,0.1,9.8,7.6,14.4,5c0.9-0.5,1.4-1.4,1.7-2.4c0.5-0.3,1.9-1.3,1.9-1.3
			c3.3-2.1,8.3-5.4,10.9-9.9c1.4-2.4,2.1-5.7,2.1-8.8C840.7,261.1,840.4,259.4,839.8,257.9L839.8,257.9z M792.8,254.5
			c1.8,0.3,3.9,1.4,5.6,2.4c-0.9,1.9-1.9,4.6-2.4,8c-1.9-0.2-6.9,1.2-10.1-2c-0.5-1.6-0.2-4-0.2-5c0-0.1,0.3-0.9,0.3-0.9
			c0.1-1,1.2-0.9,1.7-1.8C788.6,254.7,790.6,254.1,792.8,254.5L792.8,254.5z M766.6,265.2c-2,0.9-6.3,0.5-7.6-0.1
			c-0.3-2-1.3-4.3-2.7-7.2c-1.3-2.7-2.9-5.9-3.1-8c0.8-0.9,3.2-2.8,4.2-3.6c0,0,1.5-1.2,2.1-1.7c2.7-0.2,12.9,4.3,22,9.2
			c-0.5,1.2-1,2.5-1.1,3.9c-0.1,1.5,0.2,3.3,0.6,4.9C776.5,263.2,769.3,264.1,766.6,265.2L766.6,265.2z M833.3,268.8
			c-1.8,3.2-6.1,6-8.9,7.8c-1.8,1.1-3.1,3-3.8,4c-1.8-0.5-4.9-3-7.1-4.9l-4.4-3.6c-3.7-3.1-5.9-5-7.3-6c0.5-3.3,0.4-7,1.2-8.4
			c0.5,0,1.1,0,2-0.1c5.9-0.2,25,0.5,28.9,1.8c0,0,0.2,0.2,0.4,0.7c0.3,0.7,0.4,1.7,0.4,2.8C834.7,264.9,834.2,267.2,833.3,268.8
			L833.3,268.8z"/>
		<path class="st2" d="M769.5,160.1c-2.7,0.2-4.6,3.6-4.2,7.6c0.4,3.9,2.8,7,5.6,6.7c2.7-0.2,4.6-3.7,4.2-7.6
			C774.7,162.9,772.2,159.8,769.5,160.1z"/>
		<path class="st2" d="M848.2,187.5c2.5,1.2,5.9-0.7,7.6-4.3c1.7-3.6,1.2-7.4-1.3-8.6c-2.4-1.2-5.8,0.7-7.6,4.3
			C845.3,182.5,845.8,186.3,848.2,187.5L848.2,187.5z"/>
		<path class="st2" d="M781.7,159.6c0.8,2.1,4.9-1.9,7-2.7c16.6-6.5,37.6,2.1,51.8,13.1c0.7,0.6,2.6,0.9,3.6-0.3s0.8-2.6-0.1-3.6
			c-12.2-12-35.9-19.9-55.2-12.4C786.6,154.6,780.8,157.4,781.7,159.6L781.7,159.6z"/>
		<path class="st2" d="M663.1,100.8c-9.2,0-16.7,9.4-16.7,21s7.5,20.9,16.7,20.9s16.7-9.4,16.7-20.9S672.3,100.8,663.1,100.8z
			 M665.9,135.7c-5,1.1-10.6-4.3-12.2-11.8c-1.7-7.5,2.5-17.4,7.5-18.5s10.6,4.2,12.2,11.7C675.1,124.6,670.9,134.5,665.9,135.7
			L665.9,135.7z"/>
	</g>
	<g>
		<path class="st1" d="M99.4,606.7v-51.6c0-24.6,12.6-37.5,36.2-37.5c26.7,0,43.6,21.5,43.6,60.2c0,42.4-16,64.2-46.4,64.2
			C110.8,642,99.4,630,99.4,606.7L99.4,606.7z M92.7,631.8c14.4,12.3,28.3,18.4,45.8,18.4c42.4,0,69.1-27.6,69.1-73.1
			c0-40.8-26.1-68.5-63.3-68.5c-20.3,0-35.6,6.4-43.9,18.1v-95.5c0-4.6-0.3-6.1-3.1-6.1s-12,2.5-28.6,4.6
			c-10.8,1.5-16.9,0.6-16.9,4.6c0,4.6,9.2,2.5,15.7,4.9c6.4,2.1,7.1,7.7,7.1,20.3v183.6c0,2.8,0.3,4,1.8,4c0.9,0,2.2-0.6,3.4-1.8
			L92.7,631.8L92.7,631.8z"/>
		<path class="st1" d="M254.5,553.2c3.7-25.2,18.1-39.3,38.1-39.3c17.8,0,30.1,12.3,30.1,32.2c0,5.2-1.5,7.1-5.5,7.1H254.5
			L254.5,553.2z M252.6,562.1h90c6.2,0,8-0.3,8-6.8c0-24.3-23.9-47.9-57.4-47.9c-21.2,0-38.1,7.4-52.2,22.7
			c-12.9,14.1-20.3,32.8-20.3,52.2c0,38.1,28.9,68.2,70.9,68.2c34.1,0,53.4-19,53.4-27.9c0-2.2-1.2-3.4-3.1-3.4
			c-3.4,0-4.9,3.4-8.6,6.8c-10.4,9.5-19.7,12.9-32.6,12.9c-28.6,0-49.4-24.9-49.4-61.4C251.4,572.9,251.7,567.7,252.6,562.1
			L252.6,562.1z"/>
		<path class="st1" d="M447,568.9v43c0,13.8-19.7,26.7-35.6,26.7c-12.6,0-20.6-8.6-20.6-22.7C390.8,596.8,408.9,583.6,447,568.9
			L447,568.9z M446.1,629.1c2.8,13.2,13.2,21.5,27,21.5s25.5-10.8,25.5-16c0-1.8-0.9-2.8-2.8-2.8c-3.1,0-6.8,5.8-12.6,5.8
			c-6.4,0-10.1-5.8-10.1-16.6v-78c0-24.3-16.9-35.3-52.8-35.3s-53.1,12-53.1,25.5c0,6.8,4.3,11.4,10.8,11.4c10.4,0,11.7-6.1,13.2-16
			c1.2-9.2,11.1-14.7,26.4-14.7c20.3,0,29.5,7.7,29.5,24v24.3c-56.8,20.6-84.8,34.1-84.8,60.2c0,16.9,11.7,27.9,31.3,27.9
			S431.3,642.9,446.1,629.1L446.1,629.1z"/>
		<path class="st1" d="M596.9,509.6c14.4,0,23.3,7.1,23.3,16.3c0,7.7-4.3,12.3-10.4,12.3c-4.9,0-8-2.2-10.1-6.8
			c-3.1-6.5-3.4-11-13.8-11c-17.2,0-31,15.3-31,41.4v58c0,10.1,0.3,14.4,7.4,17.5c8,3.7,14.7,1.8,14.7,6.8c0,1.5-1.5,2.8-4.6,2.8
			c-3.7,0-14.1-1.8-31-1.8s-27.3,1.8-31,1.8c-3.1,0-4.6-1.2-4.6-2.8c0-4.9,6.8-3.1,14.7-6.8c7.1-3.1,7.4-7.4,7.4-17.5v-70.6
			c0-15-2.8-22.4-11.1-25.5c-7.7-2.8-16,0.9-16-4.6c0-2.2,3.7-3.4,11.1-4.9c21.5-4.3,31.9-8,33.5-8c5.5,0,4.9,9.5,7.7,32.8
			C561.6,520.4,578.1,509.6,596.9,509.6L596.9,509.6z"/>
		<path class="st1" d="M86.2,752.2c14.1-12.9,31.6-18.7,53.1-18.7c23.9,0,39.3,9.2,39.3,20.3c0,6.1-3.7,9.8-9.8,9.8
			s-9.8-3.1-12.6-9.5c-3.7-9.2-5.5-13.8-19.9-13.8c-26.4,0-44.2,23.7-44.2,65.7c0,39,17.8,61.1,46.4,61.1c11.4,0,20.6-2.8,25.8-7.4
			c4.9-4.3,6.4-9.8,10.4-9.8c2.4,0,4,1.2,4,3.7c0,10.1-16.9,23-46.7,23c-44.2,0-70.6-26.4-70.6-70C61.4,786.3,70.3,766.7,86.2,752.2
			L86.2,752.2z"/>
		<path class="st1" d="M217.3,805.4c0-41.8,18.1-66,42.7-66c27.3,0,44.2,22.7,44.2,64.8s-15.3,66-44.2,66
			C233,870.1,217.3,847.1,217.3,805.4z M187.6,805c0,41.8,31.6,71.5,74,71.5c20.6,0,36.5-6.8,51-21.5c13.8-14.1,21.5-32.5,21.5-51.6
			c0-17.2-8-35.6-22.1-49.7c-13.5-13.2-30.1-20.3-49.4-20.3C220.7,733.5,187.6,764.2,187.6,805L187.6,805z"/>
		<path class="st1" d="M350.9,746.4c-4,0-5.8-0.9-5.8-2.8c0-3.1,9.2-6.1,20.6-18.4c12.6-13.5,14.4-23,17.8-23c2.2,0,2.8,1.2,2.8,4.3
			v30.7h28.3c6.1,0,8.9,0.3,8.9,4.6c0,3.4-2.8,4.6-9.2,4.6h-27.6v92.4c0,18.7,5.5,27.6,19.7,27.6c14.2,0,18.1-14.7,23-14.7
			c1.8,0,3.7,1.8,3.7,4.3c0,7.7-14.1,19.7-36.8,19.7c-27.6,0-35.6-12-35.6-38.4v-90.9L350.9,746.4L350.9,746.4z"/>
		<path class="st1" d="M440.9,746.4c-4,0-5.8-0.9-5.8-2.8c0-3.1,9.2-6.1,20.6-18.4c12.6-13.5,14.4-23,17.8-23c2.2,0,2.8,1.2,2.8,4.3
			v30.7h28.2c6.1,0,8.9,0.3,8.9,4.6c0,3.4-2.8,4.6-9.2,4.6h-27.6v92.4c0,18.7,5.5,27.6,19.7,27.6s18.1-14.7,23-14.7
			c1.8,0,3.7,1.8,3.7,4.3c0,7.7-14.1,19.7-36.8,19.7c-27.6,0-35.6-12-35.6-38.4v-90.9L440.9,746.4L440.9,746.4z"/>
		<path class="st1" d="M620.8,794.9v43c0,13.8-19.7,26.7-35.6,26.7c-12.6,0-20.6-8.6-20.6-22.7C564.6,822.9,582.7,809.7,620.8,794.9
			L620.8,794.9z M619.8,855.1c2.8,13.2,13.2,21.5,27,21.5s25.5-10.8,25.5-16c0-1.8-0.9-2.8-2.8-2.8c-3.1,0-6.8,5.8-12.6,5.8
			c-6.4,0-10.1-5.8-10.1-16.6v-78c0-24.3-16.9-35.3-52.8-35.3s-53.1,12-53.1,25.5c0,6.8,4.3,11.4,10.8,11.4c10.4,0,11.7-6.1,13.2-16
			c1.2-9.2,11.1-14.7,26.4-14.7c20.3,0,29.5,7.7,29.5,24v24.3C564,808.8,536,822.3,536,848.4c0,16.9,11.7,27.9,31.3,27.9
			S605.1,868.9,619.8,855.1L619.8,855.1z"/>
		<path class="st1" d="M707.4,782.3c0-26.7,12.6-42.7,29.8-42.7c19.6,0,31.9,15.3,31.9,43.3s-12,42.7-31.3,42.7
			S707.4,810,707.4,782.3L707.4,782.3z M715.4,827.8c-18.7,3.7-28.6,13.2-28.6,27.6c0,20.3,17.5,27.9,51.9,28.2
			c35.6,0.3,52.8,4.9,52.8,29.8c0,21.8-17.2,35.6-46.7,35.6c-31,0-48.8-12.9-48.8-31.6c0-20,13.5-23.3,13.5-25.2
			c0-2.5-3.7-4.3-10.4-4.3c-11.7,0-23,11.7-23,25.5c0,24.6,25.8,43.3,65.7,43.3c44.2,0,70-20.9,70-53.1s-21.5-47-68.2-47.9
			c-27.6-0.6-42.1,0-42.1-10.1c0-11,14.1-12.3,37.8-14.1c37.8-3.1,56.2-17.5,56.2-47.3c0-11.7-3.7-21.2-11.4-31.6
			c5.8-3.7,10.1-5.8,13.5-5.8c8.9,0,12,11.4,20.6,11.4c5.2,0,9.5-4.3,9.5-9.8c0-8.3-7.1-13.8-18.7-13.8c-8,0-15.7,3.7-24.9,10.1
			l-4.9,3.1c-11.4-9.5-24.9-14.1-40.2-14.1c-33.5,0-57.4,21.5-57.4,49.7C681.6,803.5,693.9,819.8,715.4,827.8L715.4,827.8z"/>
		<path class="st1" d="M860.6,779.3c3.7-25.2,18.1-39.3,38.1-39.3c17.8,0,30.1,12.3,30.1,32.2c0,5.2-1.5,7.1-5.5,7.1H860.6
			L860.6,779.3z M858.8,788.2h90c6.1,0,8-0.3,8-6.8c0-24.3-23.9-47.9-57.4-47.9c-21.2,0-38.1,7.4-52.2,22.7
			c-12.9,14.1-20.3,32.8-20.3,52.2c0,38.1,28.9,68.2,70.9,68.2c34.1,0,53.4-19,53.4-27.9c0-2.2-1.2-3.4-3.1-3.4
			c-3.4,0-4.9,3.4-8.6,6.8c-10.4,9.5-19.6,12.9-32.6,12.9c-28.6,0-49.4-24.9-49.4-61.4C857.6,798.9,857.9,793.7,858.8,788.2
			L858.8,788.2z"/>
	</g>
</g>
<g>
	<path class="st1" d="M914.4,676.1c5.5,0,9.7,4.2,9.7,9.5c0,5.4-4.2,9.6-9.8,9.6c-5.5,0-9.8-4.2-9.8-9.6
		C904.5,680.3,908.9,676.1,914.4,676.1L914.4,676.1z M914.3,678c-4.2,0-7.3,3.4-7.3,7.6c0,4.2,3.1,7.6,7.4,7.6
		c4.2,0.1,7.3-3.4,7.3-7.6C921.7,681.4,918.6,678,914.3,678L914.3,678z M912.8,690.6h-2.2v-9.5c0.9-0.2,2.1-0.4,3.7-0.4
		c1.8,0,2.6,0.3,3.3,0.8c0.5,0.4,0.9,1.2,0.9,2c0,1.1-0.8,1.9-2,2.3v0.1c0.9,0.3,1.5,1,1.7,2.3c0.3,1.5,0.5,2,0.7,2.3h-2.4
		c-0.3-0.4-0.5-1.2-0.8-2.3c-0.2-1-0.8-1.5-2-1.5h-1V690.6z M912.9,685.2h1c1.2,0,2.2-0.4,2.2-1.4c0-0.9-0.6-1.5-2-1.5
		c-0.6,0-1,0.1-1.2,0.1V685.2z"/>
</g>
</svg>
